<?xml version="1.0" encoding="UTF-8"?>
<svg version="1.1" xmlns="http://www.w3.org/2000/svg" width="24" height="24">
<path d="M0 0 C3.83993133 2.90931268 5.26734231 7.36771264 6 12 C4.6875 15.5625 4.6875 15.5625 3 18 C1.68 18 0.36 18 -1 18 C-1 18.66 -1 19.32 -1 20 C-3.97 20 -6.94 20 -10 20 C-12.73633116 14.64135148 -14.00213706 10.03612785 -13 4 C-10.22224454 -0.95165103 -5.18281425 -1.05947032 0 0 Z " fill="#FDB64D" transform="translate(16,2)"/>
<path d="M0 0 C2.31 0 4.62 0 7 0 C7.125 6.625 7.125 6.625 6 10 C4.33388095 10.042721 2.66617115 10.04063832 1 10 C0 9 0 9 -0.09765625 6.93359375 C-0.08605469 6.10988281 -0.07445312 5.28617188 -0.0625 4.4375 C-0.05347656 3.61121094 -0.04445313 2.78492188 -0.03515625 1.93359375 C-0.02355469 1.29550781 -0.01195312 0.65742187 0 0 Z " fill="#206ABD" transform="translate(8,5)"/>
<path d="M0 0 C2.31 0 4.62 0 7 0 C7 2.31 7 4.62 7 7 C6.67 5.68 6.34 4.36 6 3 C4.02 3 2.04 3 0 3 C0 2.01 0 1.02 0 0 Z " fill="#6CA4C7" transform="translate(8,5)"/>
<path d="M0 0 C2.475 0.495 2.475 0.495 5 1 C5 1.99 5 2.98 5 4 C3.35 4 1.7 4 0 4 C0 2.68 0 1.36 0 0 Z " fill="#2672C5" transform="translate(9,11)"/>
</svg>
