<?xml version="1.0" encoding="UTF-8"?>
<svg version="1.1" xmlns="http://www.w3.org/2000/svg" width="24" height="24">
<path d="M0 0 C2 1 2 1 3 3 C3.54016969 6.70402074 3.79253894 9.84721609 1.625 13 C0 14 0 14 -2 14 C-2 14.66 -2 15.32 -2 16 C0.31 16 2.62 16 5 16 C5 16.99 5 17.98 5 19 C-7.66970387 20.33257403 -7.66970387 20.33257403 -13 19 C-13 18.01 -13 17.02 -13 16 C-10.69 16 -8.38 16 -6 16 C-6 15.34 -6 14.68 -6 14 C-6.639375 13.690625 -7.27875 13.38125 -7.9375 13.0625 C-10 12 -10 12 -11 11 C-11.45714286 3.91428571 -11.45714286 3.91428571 -10 1 C-6.73794446 -0.63102777 -3.56444611 -0.51981506 0 0 Z " fill="#12ADC1" transform="translate(16,2)"/>
<path d="M0 0 C2.875 -0.125 2.875 -0.125 6 0 C8 2 8 2 8.25 5 C8 8 8 8 6 10 C2.875 10.125 2.875 10.125 0 10 C0 9.34 0 8.68 0 8 C-0.66 8 -1.32 8 -2 8 C-2 6.02 -2 4.04 -2 2 C-1.34 2 -0.68 2 0 2 C0 1.34 0 0.68 0 0 Z " fill="#E2E5E6" transform="translate(9,4)"/>
<path d="M0 0 C1.32 0 2.64 0 4 0 C4 0.66 4 1.32 4 2 C6.31 2 8.62 2 11 2 C11 2.99 11 3.98 11 5 C-1.66970387 6.33257403 -1.66970387 6.33257403 -7 5 C-7 4.01 -7 3.02 -7 2 C-4.69 2 -2.38 2 0 2 C0 1.34 0 0.68 0 0 Z " fill="#708691" transform="translate(10,16)"/>
<path d="M0 0 C3.875 1.875 3.875 1.875 5 3 C5.46302251 10.17684887 5.46302251 10.17684887 3.875 13 C1.21065116 14.42098605 -1.03491085 14.19767261 -4 14 C-4 13.67 -4 13.34 -4 13 C-2.35 13 -0.7 13 1 13 C1.2236337 11.58566794 1.42826476 10.16832382 1.625 8.75 C1.74101562 7.96109375 1.85703125 7.1721875 1.9765625 6.359375 C2.00319395 3.67847541 1.36592084 2.27305911 0 0 Z " fill="#0DA4BA" transform="translate(14,2)"/>
<path d="M0 0 C0 1.98 0 3.96 0 6 C-0.99 6.495 -0.99 6.495 -2 7 C-2.33 5.68 -2.66 4.36 -3 3 C-3.99 3.33 -4.98 3.66 -6 4 C-6 3.34 -6 2.68 -6 2 C-3 0 -3 0 0 0 Z " fill="#BA6479" transform="translate(17,6)"/>
<path d="M0 0 C1.98 0 3.96 0 6 0 C6 0.99 6 1.98 6 3 C4.02 3 2.04 3 0 3 C0 2.01 0 1.02 0 0 Z " fill="#AFBDC5" transform="translate(15,18)"/>
<path d="M0 0 C1.98 0 3.96 0 6 0 C6 0.99 6 1.98 6 3 C4.02 3 2.04 3 0 3 C0 2.01 0 1.02 0 0 Z " fill="#AFBDC5" transform="translate(3,18)"/>
</svg>
